<?xml version="1.0" encoding="utf-8"?>
<!-- Generator: Adobe Illustrator 26.0.3, SVG Export Plug-In . SVG Version: 6.00 Build 0)  -->
<svg version="1.1" id="Layer_1" xmlns="http://www.w3.org/2000/svg" xmlns:xlink="http://www.w3.org/1999/xlink" x="0px" y="0px"
	 viewBox="0 0 330 110" style="enable-background:new 0 0 330 110;" xml:space="preserve">
<style type="text/css">
	.st0{fill:#FFFFFF;}
</style>
<g>
	<path class="st0" d="M111.028,5.231v9.685c0,2.041-1.153,4.197-4.612,4.197c-3.136,0-4.612-1.626-4.612-4.197V5.231h2.859v9.535
		c0,1.683,0.715,2.306,1.753,2.306c1.245,0,1.822-0.842,1.822-2.306V5.231H111.028z"/>
	<path class="st0" d="M113.507,18.882V5.231h3.863l3.632,9.455l0,0V5.231h2.675v13.652h-3.77l-3.69-9.985l0,0v9.985H113.507z"/>
	<path class="st0" d="M126.236,18.882V5.231h2.859v13.652H126.236z"/>
	<path class="st0" d="M130.537,5.231h2.963l2.11,9.927l0,0l2.387-9.927h2.813l-3.609,13.652h-3.344L130.537,5.231z"/>
	<path class="st0" d="M142.274,18.882V5.231h7.46v2.098h-4.612v3.367h4.243v2.098h-4.243v3.989h4.75v2.098H142.274z"/>
	<path class="st0" d="M154.669,18.882h-2.859V5.231h5.281c1.949,0,3.194,1.245,3.194,3.574c0,1.741-0.68,3.044-2.537,3.344l0,0
		c1.343-0.033,2.459,1.029,2.492,2.373c0.003,0.105-0.002,0.21-0.013,0.314c-0.037,1.345,0.071,2.691,0.323,4.012h-2.802
		c-0.284-0.853-0.386-1.757-0.3-2.652c0-1.626,0.15-2.998-2.041-2.998h-0.738V18.882z M154.669,11.122h1.268
		c1.153,0,1.453-1.153,1.453-1.995c0-1.314-0.542-1.799-1.453-1.799h-1.268V11.122z"/>
	<path class="st0" d="M166.222,19.113c-3.528,0-4.197-2.087-4.047-4.451h2.859c0,1.303,0,2.41,1.626,2.41
		c0.756,0.045,1.406-0.531,1.452-1.288c0.005-0.09,0.002-0.18-0.01-0.269c0-2.456-5.765-2.606-5.765-6.676
		c0-2.133,1.026-3.84,4.508-3.84c2.779,0,4.151,1.245,3.966,4.105h-2.779c0-1.026-0.173-2.064-1.326-2.064
		c-0.727-0.087-1.387,0.433-1.474,1.16c-0.012,0.097-0.012,0.196-0.002,0.293c0,2.594,5.765,2.364,5.765,6.664
		C170.996,18.698,168.401,19.113,166.222,19.113z"/>
	<path class="st0" d="M173.163,18.882V5.231h2.859v13.652H173.163z"/>
	<path class="st0" d="M186.688,5.231v2.306h-3.171v11.392h-2.859V7.49h-3.182V5.184L186.688,5.231z"/>
	<path class="st0" d="M190.666,14.155l-3.574-8.924h3.125l2.041,5.765l2.168-5.765h2.917l-3.816,8.924v4.727h-2.859L190.666,14.155z
		"/>
	<path class="st0" d="M202.991,12.056c0-3.62,0-7.056,4.716-7.056c4.716,0,4.716,3.459,4.716,7.056s0,7.056-4.716,7.056
		C202.991,19.113,202.991,15.631,202.991,12.056z M209.529,12.056c0-3.459-0.219-5.016-1.822-5.016s-1.764,1.51-1.764,5.016
		s0.208,5.016,1.81,5.016C209.356,17.072,209.529,15.55,209.529,12.056z"/>
	<path class="st0" d="M214.764,18.882V5.231h7.091v2.098h-4.232v3.459h4.047v2.133h-4.047v5.961H214.764z"/>
	<path class="st0" d="M226.467,5.231h2.94l1.776,9.535l0,0l2.156-9.581h3.367l2.075,9.581l0,0l1.753-9.535h2.802l-3.032,13.652
		h-3.159l-2.145-9.985l0,0l-2.306,9.985h-3.102L226.467,5.231z"/>
	<path class="st0" d="M244.626,18.882V5.231h2.825v13.652H244.626z"/>
	<path class="st0" d="M253.724,19.113c-3.528,0-4.197-2.087-4.047-4.451h2.859c0,1.303,0.058,2.41,1.626,2.41
		c0.756,0.045,1.406-0.531,1.452-1.288c0.005-0.09,0.002-0.18-0.01-0.269c0-2.456-5.765-2.606-5.765-6.676
		c0-2.133,1.026-3.84,4.497-3.84c2.79,0,4.162,1.245,3.978,4.105h-2.79c0-1.026-0.173-2.064-1.326-2.064
		c-0.727-0.087-1.387,0.433-1.474,1.16c-0.012,0.097-0.012,0.196-0.002,0.293c0,2.594,5.765,2.364,5.765,6.664
		C258.497,18.698,255.903,19.113,253.724,19.113z"/>
	<path class="st0" d="M260.538,12.056c0-3.62,0-7.056,4.704-7.056c2.917,0,4.093,1.603,3.978,4.543h-2.802
		c0-1.822-0.323-2.502-1.153-2.502c-1.603,0-1.81,1.51-1.81,5.016s0.138,5.016,1.787,5.016c1.326,0,1.268-1.706,1.314-2.79h2.802
		c0,3.655-1.453,4.831-4.128,4.831C260.538,19.113,260.538,15.631,260.538,12.056z"/>
	<path class="st0" d="M271.18,12.056c0-3.62,0-7.056,4.716-7.056s4.716,3.459,4.716,7.056s0,7.056-4.716,7.056
		S271.18,15.631,271.18,12.056z M277.718,12.056c0-3.459-0.219-5.016-1.822-5.016c-1.603,0-1.81,1.51-1.81,5.016
		s0.208,5.016,1.81,5.016S277.718,15.55,277.718,12.056z"/>
	<path class="st0" d="M283.021,18.882V5.231h3.863l3.632,9.455l0,0V5.231h2.675v13.652h-3.77l-3.69-9.985l0,0v9.985H283.021z"/>
	<path class="st0" d="M299.463,19.113c-3.54,0-4.197-2.087-4.047-4.451h2.859c0,1.303,0.058,2.41,1.626,2.41
		c0.757,0.039,1.402-0.543,1.441-1.3c0.004-0.086,0.001-0.172-0.011-0.257c0-2.456-5.765-2.606-5.765-6.676
		c0-2.133,1.015-3.84,4.497-3.84c2.779,0,4.162,1.245,3.978,4.105h-2.779c0-1.026-0.173-2.064-1.326-2.064
		c-0.727-0.087-1.387,0.433-1.474,1.16c-0.012,0.097-0.012,0.196-0.002,0.293c0,2.594,5.765,2.364,5.765,6.664
		C304.237,18.698,301.642,19.113,299.463,19.113z"/>
	<path class="st0" d="M306.404,18.882V5.231h2.859v13.652H306.404z"/>
	<path class="st0" d="M311.812,18.882V5.231h3.863l3.632,9.455l0,0V5.231h2.675v13.652h-3.736l-3.724-9.985l0,0v9.985H311.812z"/>
	<path class="st0" d="M123.976,37.503c2.145,2.391,3.217,5.711,3.217,9.962c0,0.761,0,1.349,0,1.764h-18.448
		c0.661,3.101,3.462,5.274,6.63,5.142c1.186,0.002,2.362-0.229,3.459-0.68c1.124-0.472,2.142-1.161,2.998-2.029l3.863,3.909
		c-1.303,1.465-2.924,2.612-4.739,3.355c-1.977,0.797-4.095,1.189-6.226,1.153c-2.458,0.057-4.892-0.502-7.079-1.626
		c-1.954-1.054-3.558-2.658-4.612-4.612c-1.134-2.082-1.713-4.421-1.683-6.791c-0.059-2.413,0.518-4.798,1.672-6.918
		c1.081-1.954,2.702-3.555,4.67-4.612c2.108-1.128,4.47-1.696,6.86-1.649C118.699,33.91,121.839,35.12,123.976,37.503z
		 M120.287,44.894c0-1.512-0.582-2.965-1.626-4.059c-1.082-1.042-2.546-1.593-4.047-1.522c-1.474-0.039-2.906,0.499-3.989,1.499
		c-1.114,1.094-1.825,2.532-2.018,4.082H120.287z"/>
	<path class="st0" d="M127.712,34.171h8.394l4.716,7.771l5.004-7.771h8.071l-8.152,12.487l8.728,13.156h-8.486l-5.154-8.394
		l-5.627,8.394h-8.071l8.867-13.11L127.712,34.171z"/>
	<path class="st0" d="M173.947,58.384c-0.983,0.598-2.047,1.052-3.159,1.349c-1.128,0.303-2.291,0.458-3.459,0.461
		c-2.132,0.087-4.217-0.647-5.823-2.052c-1.561-1.54-2.377-3.681-2.237-5.869V40.363h-3.574v-5.05h3.574v-7.056h7.299v7.056h6.918
		v5.096h-6.918v10.585c0,1.972,0.773,2.952,2.306,2.952c1.248-0.04,2.47-0.364,3.574-0.945L173.947,58.384z"/>
	<path class="st0" d="M198.333,37.503c2.145,2.391,3.217,5.711,3.217,9.962c0,0.761,0,1.349,0,1.764h-18.448
		c0.661,3.101,3.462,5.274,6.63,5.142c1.187,0.003,2.362-0.228,3.459-0.68c1.124-0.472,2.142-1.161,2.998-2.029l3.863,3.909
		c-1.303,1.465-2.924,2.612-4.739,3.355c-1.977,0.798-4.094,1.19-6.226,1.153c-2.458,0.057-4.892-0.502-7.079-1.626
		c-1.954-1.054-3.558-2.658-4.612-4.612c-1.134-2.082-1.713-4.421-1.683-6.791c-0.055-2.412,0.521-4.797,1.672-6.918
		c1.085-1.951,2.705-3.552,4.67-4.612c2.125-1.137,4.508-1.706,6.918-1.649C193.068,33.91,196.189,35.12,198.333,37.503z
		 M194.644,44.894c0-1.512-0.582-2.965-1.626-4.059c-1.082-1.042-2.546-1.593-4.047-1.522c-1.471-0.042-2.9,0.496-3.978,1.499
		c-1.118,1.092-1.833,2.531-2.029,4.082H194.644z"/>
	<path class="st0" d="M229.13,36.546c1.76,1.953,2.677,4.523,2.548,7.149v16.142h-7.287v-13.94c0.081-1.411-0.41-2.794-1.361-3.84
		c-0.974-0.972-2.316-1.483-3.69-1.407c-1.643-0.085-3.238,0.571-4.347,1.787c-1.087,1.316-1.65,2.987-1.58,4.693v12.683h-7.333
		V34.171h7.333v4.474c1.791-3.075,4.747-4.662,8.867-4.762C224.838,33.764,227.326,34.731,229.13,36.546z"/>
	<path class="st0" d="M263.04,24.44v35.374h-7.287v-3.77c-0.878,1.287-2.068,2.33-3.459,3.032c-1.455,0.701-3.054,1.052-4.67,1.026
		c-2.233,0.047-4.436-0.523-6.365-1.649c-1.832-1.093-3.306-2.695-4.243-4.612c-1.035-2.157-1.548-4.526-1.499-6.918
		c-0.022-2.355,0.512-4.681,1.557-6.791c0.917-1.915,2.376-3.519,4.197-4.612c1.893-1.097,4.05-1.655,6.238-1.614
		c3.279-0.168,6.414,1.36,8.302,4.047V24.44H263.04z M253.954,52.204c1.244-1.421,1.888-3.268,1.799-5.154
		c0.081-1.874-0.563-3.707-1.799-5.119c-1.164-1.317-2.856-2.045-4.612-1.983c-1.754-0.049-3.441,0.677-4.612,1.983
		c-2.442,2.976-2.442,7.263,0,10.239c1.171,1.306,2.858,2.032,4.612,1.983C251.093,54.223,252.784,53.508,253.954,52.204z"/>
	<path class="st0" d="M290.516,37.503c2.145,2.391,3.217,5.711,3.217,9.962c0,0.761,0,1.349,0,1.764h-18.437
		c0.329,1.501,1.168,2.842,2.375,3.793c1.223,0.914,2.717,1.389,4.243,1.349c1.187,0.003,2.362-0.228,3.459-0.68
		c1.123-0.472,2.142-1.161,2.998-2.029l3.863,3.909c-1.303,1.465-2.924,2.612-4.739,3.355c-1.977,0.799-4.094,1.191-6.226,1.153
		c-2.458,0.057-4.892-0.502-7.079-1.626c-1.976-1.045-3.6-2.649-4.67-4.612c-1.11-2.089-1.665-4.427-1.614-6.791
		c-0.059-2.411,0.513-4.796,1.66-6.918c1.086-1.954,2.711-3.555,4.681-4.612c2.107-1.13,4.47-1.698,6.86-1.649
		C285.235,33.91,288.371,35.12,290.516,37.503z M286.826,44.894c0.006-1.513-0.577-2.968-1.626-4.059
		c-1.082-1.042-2.546-1.593-4.047-1.522c-1.471-0.042-2.9,0.496-3.978,1.499c-1.127,1.089-1.85,2.528-2.052,4.082L286.826,44.894z"
		/>
	<path class="st0" d="M323.55,24.44v35.374h-7.264v-3.77c-0.874,1.29-2.065,2.335-3.459,3.032c-1.455,0.703-3.054,1.055-4.67,1.026
		c-2.233,0.044-4.434-0.526-6.365-1.649c-1.83-1.096-3.303-2.698-4.243-4.612c-1.035-2.157-1.548-4.526-1.499-6.918
		c-0.035-2.349,0.478-4.675,1.499-6.791c0.917-1.915,2.376-3.519,4.197-4.612c1.893-1.097,4.05-1.655,6.238-1.614
		c3.279-0.171,6.416,1.359,8.302,4.047V24.44H323.55z M314.475,52.204c1.244-1.421,1.892-3.267,1.81-5.154
		c0.079-1.872-0.56-3.703-1.787-5.119c-2.432-2.547-6.468-2.641-9.015-0.209c-0.071,0.068-0.141,0.138-0.209,0.209
		c-2.442,2.976-2.442,7.263,0,10.239c2.432,2.547,6.468,2.641,9.015,0.209c0.071-0.068,0.141-0.138,0.209-0.209L314.475,52.204z"/>
	<path class="st0" d="M114.614,73.488c-1.688-0.029-3.353,0.397-4.82,1.234c-1.418,0.812-2.574,2.012-3.332,3.459
		c-0.802,1.572-1.199,3.32-1.153,5.085c-0.043,1.768,0.353,3.519,1.153,5.096c0.759,1.447,1.915,2.647,3.332,3.459
		c1.467,0.836,3.131,1.262,4.82,1.234c1.526,0.016,3.039-0.275,4.451-0.853c1.333-0.541,2.518-1.391,3.459-2.479l1.81,1.902
		c-1.133,1.352-2.572,2.415-4.197,3.102c-1.781,0.747-3.696,1.12-5.627,1.095c-2.232,0.038-4.434-0.511-6.388-1.591
		c-1.858-1.054-3.384-2.608-4.404-4.485c-2.136-4.076-2.136-8.941,0-13.017c1.021-1.874,2.547-3.423,4.404-4.474
		c1.951-1.087,4.154-1.64,6.388-1.603c1.816-0.02,3.62,0.304,5.315,0.957c1.545,0.594,2.95,1.501,4.128,2.663l-1.81,2.145
		C120.132,74.464,117.416,73.408,114.614,73.488z"/>
	<path class="st0" d="M146.264,95.753v-4.197c-0.955,1.43-2.294,2.561-3.863,3.263c-1.733,0.743-3.604,1.108-5.488,1.072
		c-1.541,0.034-3.067-0.302-4.451-0.98c-1.23-0.594-2.266-1.526-2.986-2.687c-0.702-1.165-1.065-2.503-1.049-3.863
		c-0.07-2.01,0.869-3.922,2.502-5.096c2.043-1.356,4.471-2.011,6.918-1.868h8.382v-1.902c0.114-1.721-0.53-3.406-1.764-4.612
		c-1.449-1.168-3.286-1.745-5.142-1.614c-2.946,0.089-5.781,1.142-8.071,2.998l-1.43-2.191c1.486-1.072,3.107-1.944,4.82-2.594
		c1.685-0.591,3.461-0.876,5.246-0.842c2.541-0.149,5.044,0.675,6.999,2.306c1.708,1.623,2.629,3.907,2.525,6.261v16.546
		L146.264,95.753z M143.093,91.671c1.537-1.025,2.647-2.574,3.125-4.358v-3.459h-8.071c-1.743-0.088-3.475,0.312-5.004,1.153
		c-1.129,0.706-1.786,1.968-1.718,3.298c-0.049,1.392,0.563,2.725,1.649,3.597c1.247,0.953,2.791,1.435,4.358,1.361
		C139.436,93.318,141.411,92.763,143.093,91.671z"/>
	<path class="st0" d="M197.353,73.246c1.746,1.962,2.638,4.539,2.479,7.16v15.346h-3.24V81.167c0.122-2.035-0.57-4.035-1.926-5.557
		c-1.422-1.365-3.347-2.079-5.315-1.972c-2.396-0.058-4.695,0.951-6.272,2.756c-1.597,1.996-2.417,4.503-2.306,7.056v12.303h-3.194
		V81.167c0.124-2.037-0.573-4.039-1.937-5.557c-1.42-1.369-3.346-2.084-5.315-1.972c-2.4-0.062-4.703,0.948-6.284,2.756
		c-1.606,1.991-2.426,4.501-2.306,7.056v12.303h-3.182V70.767h3.194v5.869c0.719-1.839,2.019-3.394,3.701-4.428
		c1.816-1.04,3.88-1.57,5.973-1.533c2.117-0.089,4.204,0.523,5.938,1.741c1.605,1.222,2.715,2.983,3.125,4.958
		c0.626-2.038,1.928-3.803,3.69-5.004c1.883-1.163,4.06-1.759,6.272-1.718C193.01,70.518,195.512,71.458,197.353,73.246z"/>
	<path class="st0" d="M228.6,72.278c1.82,1.053,3.301,2.605,4.266,4.474c1.044,2.027,1.571,4.281,1.533,6.561
		c0.034,2.254-0.493,4.481-1.533,6.48c-0.971,1.854-2.44,3.4-4.243,4.462c-1.882,1.08-4.022,1.63-6.192,1.591
		c-2.104,0.05-4.181-0.476-6.007-1.522c-1.713-1.032-3.1-2.527-4.001-4.312V105h-3.194V70.767h3.194v5.765
		c0.875-1.796,2.258-3.295,3.978-4.312c1.813-1.06,3.884-1.599,5.984-1.557C224.565,70.628,226.713,71.186,228.6,72.278z
		 M226.628,91.821c1.41-0.821,2.564-2.019,3.332-3.459c1.584-3.201,1.584-6.957,0-10.158c-0.771-1.438-1.924-2.635-3.332-3.459
		c-1.463-0.847-3.129-1.282-4.82-1.257c-1.695-0.033-3.367,0.402-4.831,1.257c-1.406,0.83-2.562,2.025-3.344,3.459
		c-0.801,1.56-1.197,3.297-1.153,5.05c-0.045,1.772,0.352,3.527,1.153,5.108c0.768,1.44,1.922,2.638,3.332,3.459
		c1.479,0.851,3.16,1.285,4.866,1.257C223.514,93.099,225.172,92.665,226.628,91.821L226.628,91.821z"/>
	<path class="st0" d="M263.236,70.767v24.986h-3.24v-5.961c-0.722,1.865-2.018,3.451-3.701,4.531
		c-1.798,1.058-3.852,1.6-5.938,1.568c-2.567,0.137-5.074-0.803-6.918-2.594c-1.75-1.947-2.651-4.512-2.502-7.126V70.767h3.24
		v14.597c-0.123,2.015,0.566,3.996,1.914,5.5c1.421,1.368,3.345,2.086,5.315,1.983c2.406,0.086,4.721-0.923,6.295-2.744
		c1.602-2.002,2.421-4.518,2.306-7.079V70.767H263.236z"/>
	<path class="st0" d="M282.872,73.8c-1.125-0.324-2.289-0.491-3.459-0.496c-1.342-0.067-2.674,0.253-3.84,0.922
		c-0.968,0.594-1.534,1.668-1.476,2.802c-0.028,0.776,0.254,1.531,0.784,2.098c0.559,0.564,1.226,1.011,1.96,1.314
		c1.065,0.445,2.155,0.83,3.263,1.153c1.432,0.403,2.834,0.904,4.197,1.499c1.077,0.49,2.024,1.224,2.767,2.145
		c0.805,1.056,1.213,2.363,1.153,3.69c0.104,2.056-0.87,4.018-2.571,5.177c-1.909,1.245-4.156,1.869-6.434,1.787
		c-1.789,0.007-3.565-0.301-5.246-0.911c-1.585-0.537-3.034-1.414-4.243-2.571l1.28-2.306c1.126,1,2.428,1.782,3.84,2.306
		c1.435,0.568,2.965,0.861,4.508,0.865c1.449,0.064,2.885-0.301,4.128-1.049c1.036-0.663,1.642-1.827,1.591-3.055
		c0.047-0.845-0.243-1.675-0.807-2.306c-0.567-0.604-1.26-1.076-2.029-1.384c-0.807-0.334-1.926-0.726-3.355-1.153
		c-1.398-0.405-2.769-0.898-4.105-1.476c-1.037-0.475-1.949-1.186-2.663-2.075c-0.79-1.011-1.198-2.269-1.153-3.551
		c-0.111-1.97,0.822-3.853,2.456-4.958c1.826-1.171,3.967-1.754,6.134-1.672c1.4-0.002,2.793,0.192,4.139,0.576
		c1.261,0.346,2.466,0.874,3.574,1.568l-1.234,2.433C285.047,74.569,283.984,74.107,282.872,73.8z"/>
	<polygon class="st0" points="6.45,49.61 21.013,64.161 27.078,57.312 6.45,33.987 	"/>
	<path class="st0" d="M87.08,36.166L76.242,47.05v-15.9L50.288,5.219H23.296v6.584L6.474,20.404v8.797
		c5.189,0,13.467,0.161,13.467,0.161L44.638,57.3l0,0l-17.41,19.728l3.759,19.935c0,0,44.967-0.715,45.509-0.184l13.26-57.869
		L87.08,36.166z M74.213,57.312L74.213,57.312l-24.72,27.949c0,0-17.56,0.357-17.56,0l24.72-27.949l-24.72-27.949
		c0-0.357,17.56,0,17.56,0L74.213,57.3l0,0V57.312z"/>
</g>
</svg>
